<?xml version="1.0" encoding="utf-8"?>
<!-- Generator: Adobe Illustrator 25.2.1, SVG Export Plug-In . SVG Version: 6.00 Build 0)  -->
<svg version="1.1" id="Layer_1" xmlns="http://www.w3.org/2000/svg" xmlns:xlink="http://www.w3.org/1999/xlink" x="0px" y="0px"
	 viewBox="0 0 1024.26 1024.42" style="enable-background:new 0 0 1024.26 1024.42;" xml:space="preserve">
<style type="text/css">
	.st0{fill:#141103;}
	.st1{fill:#2A9903;}
	.st2{fill:#FFFFFF;}
</style>
<path class="st0" d="M798.8,1024.42H225.72c-124.52,0-225.46-100.94-225.46-225.46V319.42L315,0.42h483.8
	c124.52,0,225.46,100.94,225.46,225.46v573.08C1024.26,923.48,923.32,1024.42,798.8,1024.42z"/>
<g>
	<path class="st1" d="M0,319.42h289.3c14.06,0,25.46-11.4,25.46-25.46L315,0L0,319.42z"/>
</g>
<g>
	<path class="st2" d="M149.12,503.55l-25,0.09l-0.2-52.5l25-0.09l-0.17-45l55.84-0.21l0.17,45l25-0.09l0.2,52.5l-25,0.09
		l0.69,184.17l-55.84,0.21L149.12,503.55z"/>
	<path class="st2" d="M264.49,378.95l55.84-0.21l1.15,308.35l-55.84,0.21L264.49,378.95z"/>
	<path class="st2" d="M535.66,686.28l-50.83,0.19l-0.1-26.67c-4.51,19.6-23.63,31.76-45.72,31.84
		c-42.5,0.16-74.73-38.06-75.05-123.06c-0.3-80,25.79-123.43,74.12-123.61c18.75-0.07,32.53,6.96,41.35,24.85
		c-0.44-6.66-0.47-13.33-0.49-20l-0.27-71.67l55.84-0.21L535.66,686.28z M419.79,568.79c0.19,52.09,11.92,67.04,30.67,66.97
		c11.25-0.04,16.24-3.4,22.04-10.5c7.05-8.78,7.01-20.03,6.87-57.11c-0.14-37.08-0.18-48.33-7.3-57.06
		c-5.86-7.06-10.87-10.38-22.12-10.33c-18.75,0.07-30.36,15.11-30.17,67.62L419.79,568.79z"/>
	<path class="st2" d="M583.11,449.43l48.34-0.18l0.08,22.5c9.1-16.7,21.15-27.58,50.31-27.69c37.5-0.14,61.33,20.6,61.51,68.52
		L744,685.51l-55.84,0.21l-0.58-154.59c-0.06-16.25-3.87-31.24-23.45-31.16c-14.58,0.05-24.97,7.6-24.9,27.6l0.59,158.34
		l-55.84,0.21L583.11,449.43z"/>
	<path class="st2" d="M791.45,448.65l50.83-0.19l0.12,30.83c8.22-29.61,29.03-35.94,59.87-36.06l0.26,68.75
		c-7.94-5.39-16.28-7.02-24.61-6.99c-20.83,0.08-30.35,17.61-30.26,41.78l0.52,138.34l-55.84,0.21L791.45,448.65z"/>
</g>
</svg>
