<?xml version="1.0" encoding="utf-8"?>
<!-- Generator: Adobe Illustrator 25.2.1, SVG Export Plug-In . SVG Version: 6.00 Build 0)  -->
<svg version="1.1" id="Layer_1" xmlns="http://www.w3.org/2000/svg" xmlns:xlink="http://www.w3.org/1999/xlink" x="0px" y="0px"
	 viewBox="0 0 55.25 50" style="enable-background:new 0 0 55.25 50;" xml:space="preserve">
<style type="text/css">
	.st0{fill:#FCB315;}
	.st1{fill:#E86E24;}
	.st2{fill:#FBAD18;}
	.st3{fill:#FCD234;}
	.st4{fill:#FEEEB8;}
</style>
<g id="Page-1">
	<g id="sketch-symbol">
		<polygon id="Path" class="st0" points="12.06,1.65 27.63,0 43.2,1.65 55.25,17.83 27.63,50 0,17.83 		"/>
		<g id="Group" transform="translate(0.000000, 126.881084)">
			<polygon id="Path_1_" class="st1" points="11.19,-109.05 27.63,-76.88 0,-109.05 			"/>
			<polygon id="Path_2_" class="st1" points="44.06,-109.05 27.63,-76.88 55.25,-109.05 			"/>
			<polygon id="Path_3_" class="st2" points="11.19,-109.05 44.06,-109.05 27.63,-76.88 			"/>
		</g>
		<g id="Group_1_">
			<polygon id="Path_4_" class="st3" points="27.63,0 12.06,1.65 11.19,17.83 			"/>
			<polygon id="Path_5_" class="st3" points="27.63,0 43.2,1.65 44.06,17.83 			"/>
			<polygon id="Path_6_" class="st2" points="55.25,17.83 43.2,1.65 44.06,17.83 			"/>
			<polygon id="Path_7_" class="st2" points="0,17.83 12.06,1.65 11.19,17.83 			"/>
			<polygon id="Path_8_" class="st4" points="27.63,0 11.19,17.83 44.06,17.83 			"/>
		</g>
	</g>
</g>
</svg>
