<?xml version="1.0" encoding="utf-8"?>
<!-- Generator: Adobe Illustrator 25.2.1, SVG Export Plug-In . SVG Version: 6.00 Build 0)  -->
<svg version="1.1" id="Layer_1" xmlns="http://www.w3.org/2000/svg" xmlns:xlink="http://www.w3.org/1999/xlink" x="0px" y="0px"
	 viewBox="0 0 51.28 50" style="enable-background:new 0 0 51.28 50;" xml:space="preserve">
<style type="text/css">
	.st0{fill:#DD4A9A;}
	.st1{fill:#2A1021;}
	.st2{fill:#FBD9E8;}
</style>
<g>
	<path class="st0" d="M42.2,50H9.08C4.06,50,0,45.94,0,40.92V9.08C0,4.06,4.06,0,9.08,0H42.2c5.02,0,9.08,4.06,9.08,9.08v31.84
		C51.28,45.94,47.22,50,42.2,50z"/>
	<path class="st1" d="M41.39,47.86H9.89c-4.27,0-7.76-3.48-7.76-7.76V9.89c0-4.27,3.48-7.76,7.76-7.76h31.47
		c4.29,0,7.76,3.48,7.76,7.76v30.19C49.15,44.38,45.66,47.86,41.39,47.86z"/>
	<path class="st2" d="M20.28,23.4l5.98,11.5c0.11,0.17,0.04,0.34-0.13,0.34h-3.72c-0.24,0-0.34-0.06-0.45-0.28
		c-1.37-2.82-2.76-5.64-4.19-8.68h-0.04c-1.28,2.86-2.69,5.88-4.06,8.7c-0.11,0.17-0.21,0.24-0.38,0.24H9.76
		c-0.21,0-0.24-0.17-0.13-0.3l5.85-11.15L9.83,12.48c-0.13-0.17,0-0.3,0.13-0.3h3.68c0.21,0,0.3,0.04,0.38,0.24
		c1.35,2.82,2.71,5.73,4,8.57h0.04c1.24-2.82,2.61-5.75,3.93-8.55c0.11-0.17,0.17-0.28,0.38-0.28h3.44c0.17,0,0.24,0.13,0.13,0.3
		L20.28,23.4z M27.31,26.88c0-4.98,3.31-8.87,8.57-8.87c0.45,0,0.68,0,1.11,0.04v-5.66c0-0.13,0.11-0.21,0.21-0.21h3.38
		c0.17,0,0.21,0.06,0.21,0.17v19.62c0,0.58,0,1.3,0.11,2.09c0,0.13-0.04,0.17-0.17,0.24c-1.79,0.85-3.68,1.24-5.47,1.24
		C30.62,35.56,27.31,32.69,27.31,26.88z M36.99,21.41c-0.3-0.13-0.73-0.21-1.24-0.21c-2.69,0-4.57,2.07-4.57,5.51
		c0,3.93,1.92,5.51,4.34,5.51c0.51,0,1.07-0.06,1.47-0.24V21.41z"/>
</g>
</svg>
